REM DIRINDEX 1\2\4,1\2\5,1\3\6,1\3\7,1\3\8
REM DIRNAME cjc094,folder01,folder02,folder03,folder04,folder05,folder06,folder07
TITLE ""
FILE "LV3_058_WORDS.mp3" MP3
  TRACK 01 AUDIO
    TITLE "0:"
    INDEX 01 00:00:00
  TRACK 02 AUDIO
    TITLE "6:cjc094_2049"
    INDEX 01 00:00:03
  TRACK 03 AUDIO
    TITLE "0:"
    INDEX 01 00:02:51
  TRACK 04 AUDIO
    TITLE "7:cjc094_2050"
    INDEX 01 00:03:27
  TRACK 05 AUDIO
    TITLE "0:"
    INDEX 01 00:04:07
  TRACK 06 AUDIO
    TITLE "8:cjc094_2051"
    INDEX 01 00:04:35
  TRACK 07 AUDIO
    TITLE "0:"
    INDEX 01 00:06:18
  TRACK 08 AUDIO
    TITLE "7:cjc094_2052"
    INDEX 01 00:06:61
  TRACK 09 AUDIO
    TITLE "0:"
    INDEX 01 00:07:64
  TRACK 10 AUDIO
    TITLE "8:cjc094_2053"
    INDEX 01 00:08:07
  TRACK 11 AUDIO
    TITLE "0:"
    INDEX 01 00:09:57
  TRACK 12 AUDIO
    TITLE "7:cjc094_2054"
    INDEX 01 00:10:29
  TRACK 13 AUDIO
    TITLE "0:"
    INDEX 01 00:11:33
  TRACK 14 AUDIO
    TITLE "8:cjc094_2055"
    INDEX 01 00:11:48
  TRACK 15 AUDIO
    TITLE "0:"
    INDEX 01 00:13:61
  TRACK 16 AUDIO
    TITLE "7:cjc094_2056"
    INDEX 01 00:14:33
  TRACK 17 AUDIO
    TITLE "0:"
    INDEX 01 00:15:34
  TRACK 18 AUDIO
    TITLE "8:cjc094_2057"
    INDEX 01 00:15:60
  TRACK 19 AUDIO
    TITLE "0:"
    INDEX 01 00:18:01
  TRACK 20 AUDIO
    TITLE "7:cjc094_2058"
    INDEX 01 00:18:52
  TRACK 21 AUDIO
    TITLE "0:"
    INDEX 01 00:19:58
  TRACK 22 AUDIO
    TITLE "8:cjc094_2059"
    INDEX 01 00:20:04
  TRACK 23 AUDIO
    TITLE "0:"
    INDEX 01 00:22:13
  TRACK 24 AUDIO
    TITLE "7:cjc094_2060"
    INDEX 01 00:22:60
  TRACK 25 AUDIO
    TITLE "0:"
    INDEX 01 00:23:57
  TRACK 26 AUDIO
    TITLE "8:cjc094_2061"
    INDEX 01 00:24:00
  TRACK 27 AUDIO
    TITLE "0:"
    INDEX 01 00:26:69
  TRACK 28 AUDIO
    TITLE "7:cjc094_2062"
    INDEX 01 00:27:47
  TRACK 29 AUDIO
    TITLE "0:"
    INDEX 01 00:28:51
  TRACK 30 AUDIO
    TITLE "8:cjc094_2063"
    INDEX 01 00:28:74
  TRACK 31 AUDIO
    TITLE "0:"
    INDEX 01 00:31:59
  TRACK 32 AUDIO
    TITLE "7:cjc094_2064"
    INDEX 01 00:32:33
  TRACK 33 AUDIO
    TITLE "0:"
    INDEX 01 00:33:36
  TRACK 34 AUDIO
    TITLE "8:cjc094_2065"
    INDEX 01 00:33:56
  TRACK 35 AUDIO
    TITLE "0:"
    INDEX 01 00:35:55
  TRACK 36 AUDIO
    TITLE "7:cjc094_2066"
    INDEX 01 00:36:23
  TRACK 37 AUDIO
    TITLE "0:"
    INDEX 01 00:37:18
  TRACK 38 AUDIO
    TITLE "8:cjc094_2067"
    INDEX 01 00:37:32
  TRACK 39 AUDIO
    TITLE "0:"
    INDEX 01 00:40:26
  TRACK 40 AUDIO
    TITLE "7:cjc094_2068"
    INDEX 01 00:40:72
  TRACK 41 AUDIO
    TITLE "0:"
    INDEX 01 00:41:65
  TRACK 42 AUDIO
    TITLE "8:cjc094_2069"
    INDEX 01 00:42:12
  TRACK 43 AUDIO
    TITLE "0:"
    INDEX 01 00:44:07
  TRACK 44 AUDIO
    TITLE "7:cjc094_2070"
    INDEX 01 00:44:48
  TRACK 45 AUDIO
    TITLE "0:"
    INDEX 01 00:45:37
  TRACK 46 AUDIO
    TITLE "8:cjc094_2071"
    INDEX 01 00:45:53
  TRACK 47 AUDIO
    TITLE "0:"
    INDEX 01 00:46:51
  TRACK 48 AUDIO
    TITLE "7:cjc094_2072"
    INDEX 01 00:47:27
  TRACK 49 AUDIO
    TITLE "0:"
    INDEX 01 00:48:30
  TRACK 50 AUDIO
    TITLE "8:cjc094_2073"
    INDEX 01 00:48:48
  TRACK 51 AUDIO
    TITLE "0:"
    INDEX 01 00:50:21
  TRACK 52 AUDIO
    TITLE "7:cjc094_2074"
    INDEX 01 00:50:72
  TRACK 53 AUDIO
    TITLE "0:"
    INDEX 01 00:52:20
  TRACK 54 AUDIO
    TITLE "8:cjc094_2075"
    INDEX 01 00:52:36
  TRACK 55 AUDIO
    TITLE "0:"
    INDEX 01 00:53:39
  TRACK 56 AUDIO
    TITLE "7:cjc094_2076"
    INDEX 01 00:54:15
  TRACK 57 AUDIO
    TITLE "0:"
    INDEX 01 00:55:26
  TRACK 58 AUDIO
    TITLE "8:cjc094_2077"
    INDEX 01 00:55:42
  TRACK 59 AUDIO
    TITLE "0:"
    INDEX 01 00:58:09
  TRACK 60 AUDIO
    TITLE "7:cjc094_2078"
    INDEX 01 00:58:60
  TRACK 61 AUDIO
    TITLE "0:"
    INDEX 01 01:00:06
  TRACK 62 AUDIO
    TITLE "8:cjc094_2079"
    INDEX 01 01:00:27
  TRACK 63 AUDIO
    TITLE "0:"
    INDEX 01 01:02:30
  TRACK 64 AUDIO
    TITLE "7:cjc094_2080"
    INDEX 01 01:03:08
  TRACK 65 AUDIO
    TITLE "0:"
    INDEX 01 01:04:00
  TRACK 66 AUDIO
    TITLE "8:cjc094_2081"
    INDEX 01 01:04:15
  TRACK 67 AUDIO
    TITLE "0:"
    INDEX 01 01:07:70
  TRACK 68 AUDIO
    TITLE "7:cjc094_2082"
    INDEX 01 01:08:46
  TRACK 69 AUDIO
    TITLE "0:"
    INDEX 01 01:09:44
  TRACK 70 AUDIO
    TITLE "8:cjc094_2083"
    INDEX 01 01:09:67
  TRACK 71 AUDIO
    TITLE "0:"
    INDEX 01 01:13:00
  TRACK 72 AUDIO
    TITLE "7:cjc094_2084"
    INDEX 01 01:13:55
  TRACK 73 AUDIO
    TITLE "0:"
    INDEX 01 01:14:49
  TRACK 74 AUDIO
    TITLE "8:cjc094_2085"
    INDEX 01 01:14:72
  TRACK 75 AUDIO
    TITLE "0:"
    INDEX 01 01:17:57
